<svg xmlns="http://www.w3.org/2000/svg" version="1.1" xmlns:xlink="http://www.w3.org/1999/xlink" width="16" height="16"><svg id="SvgjsSvg1022" xmlns="http://www.w3.org/2000/svg" version="1.1" viewBox="0 0 16 16">
  <!-- Generator: Adobe Illustrator 30.0.0, SVG Export Plug-In . SVG Version: 2.1.1 Build 123)  -->
  <defs>
    <style>
      .st0 {
        fill: #54a6bc;
      }

      .st1 {
        fill: #f3a100;
      }
    </style>
  </defs>
  <polygon class="st1" points=".8 9.4 7.3 3.5 9.5 6.4 12.6 8.9 6.6 15.3 3 13.2 .8 9.4"></polygon>
  <path class="st0" d="M6.8,2.8c-.5-.8-1.1-1.4-1.6-1.9-.2-.2-.5-.4-.8-.6-.3-.1-.6-.2-1,0-.4.2-.5.7-.5,1,0,.3,0,.8.2,1.2.2.8.6,1.7,1.2,2.7L.5,9c-.3.3-.3.8-.3,1,0,.3.2.7.4,1,.4.7,1.1,1.6,1.9,2.4.8.8,1.7,1.5,2.4,1.9.4.2.7.3,1,.4.3,0,.7,0,1.1-.2l6.5-6.4c.1.3.1.6,0,1.1,0,.3,0,.8,0,1.3h0c0,.1,0,.1,0,.1,0,.6.6,1.1,1.3,1,.6,0,1-.5,1.1-1h0c0-.1,0-.2,0-.2,0-1.4-.8-3.1-2.2-4,0-.2-.2-.3-.2-.5-.4-.7-1.1-1.6-1.9-2.4s-1.7-1.5-2.4-1.9c-.4-.2-.7-.3-1-.4-.3,0-.7,0-1.1.3l-.3.2ZM4.4,1.8c.4.4,1,1.1,1.5,1.9l-.8.8c-.4-.8-.8-1.6-.9-2.2,0-.3-.1-.5-.2-.8.1,0,.2.2.4.3M4.9,6.3c.6,1,1.3,1.8,1.9,2.3.2.2.6.2.8,0,.2-.2.2-.6,0-.8-.5-.5-1.2-1.3-1.8-2.3l1.3-1.2c0,.1.1.3.2.4.4.7,1.1,1.6,1.9,2.4.8.8,1.7,1.5,2.4,1.9.1,0,.3.1.4.2l-5.6,5.6h0c-.2,0-.4-.1-.7-.3-.6-.3-1.4-.9-2.1-1.7s-1.4-1.5-1.7-2.1c-.2-.3-.3-.5-.3-.7h0c0,0,3.5-3.6,3.5-3.6ZM8.2,4.1c-.1-.2-.2-.4-.3-.6.2,0,.4.1.7.3.6.3,1.4.9,2.1,1.7s1,1,1.3,1.5c-.4,0-.8,0-1.2.1-.3-.3-.6-.5-.9-.8-.8-.8-1.4-1.5-1.7-2.1h0Z"></path>
</svg><style>@media (prefers-color-scheme: light) { :root { filter: none; } }
@media (prefers-color-scheme: dark) { :root { filter: none; } }
</style></svg>