<?xml version="1.0" encoding="UTF-8"?>
<svg id="Layer_1" xmlns="http://www.w3.org/2000/svg" version="1.1" viewBox="0 0 22 22">
  <!-- Generator: Adobe Illustrator 30.0.0, SVG Export Plug-In . SVG Version: 2.1.1 Build 123)  -->
  <defs>
    <style>
      .st0 {
        fill: none;
      }

      .st0, .st1 {
        stroke: #000;
        stroke-linejoin: round;
      }
    </style>
  </defs>
  <path d="M9,8.9c0-.4.3-.7.7-.7h1.3c.4,0,.7.3.7.7v1.4c0,.4-.3.7-.7.7h-1.3c-.4,0-.7-.3-.7-.7v-1.4ZM9,13.1c0-.4.3-.7.7-.7h1.3c.4,0,.7.3.7.7v1.4c0,.4-.3.7-.7.7h-1.3c-.4,0-.7-.3-.7-.7v-1.4ZM9,17.2c0-.4.3-.7.7-.7h1.3c.4,0,.7.3.7.7v1.4c0,.4-.3.7-.7.7h-1.3c-.4,0-.7-.3-.7-.7v-1.4ZM13.1,8.9c0-.4.3-.7.7-.7h1.3c.4,0,.7.3.7.7v1.4c0,.4-.3.7-.7.7h-1.3c-.4,0-.7-.3-.7-.7v-1.4ZM13.1,13.1c0-.4.3-.7.7-.7h1.3c.4,0,.7.3.7.7v1.4c0,.4-.3.7-.7.7h-1.3c-.4,0-.7-.3-.7-.7v-1.4ZM13.1,17.2c0-.4.3-.7.7-.7h1.3c.4,0,.7.3.7.7v1.4c0,.4-.3.7-.7.7h-1.3c-.4,0-.7-.3-.7-.7v-1.4ZM17.1,8.9c0-.4.3-.7.7-.7h1.3c.4,0,.7.3.7.7v1.4c0,.4-.3.7-.7.7h-1.3c-.4,0-.7-.3-.7-.7v-1.4ZM17.1,13.1c0-.4.3-.7.7-.7h1.3c.4,0,.7.3.7.7v5.5c0,.4-.3.7-.7.7h-1.3c-.4,0-.7-.3-.7-.7v-5.5Z"/>
  <rect class="st0" x=".6" y=".6" width="20.7" height="20.7"/>
  <rect class="st1" x="2.1" y="2.2" width="17.6" height="4.7"/>
</svg>