<?xml version="1.0" encoding="UTF-8"?>
<svg id="Layer_1" xmlns="http://www.w3.org/2000/svg" version="1.1" viewBox="0 0 22 22">
  <!-- Generator: Adobe Illustrator 30.0.0, SVG Export Plug-In . SVG Version: 2.1.1 Build 123)  -->
  <path d="M11,6.9c1.1,0,2.1-.9,2.1-2.1s-.9-2.1-2.1-2.1-2.1.9-2.1,2.1.9,2.1,2.1,2.1M16.5,11c1.1,0,2.1-.9,2.1-2.1s-.9-2.1-2.1-2.1-2.1.9-2.1,2.1.9,2.1,2.1,2.1M7.6,9.6c0,1.1-.9,2.1-2.1,2.1s-2.1-.9-2.1-2.1.9-2.1,2.1-2.1,2.1.9,2.1,2.1M8.2,17.9c1.1,0,2.1-.9,2.1-2.1s-.9-2.1-2.1-2.1-2.1.9-2.1,2.1.9,2.1,2.1,2.1"/>
  <path d="M22,11c0,4.3-2.6,3.6-4.9,2.8-1.4-.4-2.7-.8-3.3,0-.8.9-.7,2.5-.5,4,.2,2.2.5,4.2-2.3,4.2C4.9,22,0,17.1,0,11S4.9,0,11,0s11,4.9,11,11M11,20.6c.8,0,.9-.2.9-.2.1-.2.2-.6,0-1.5,0-.2,0-.5,0-.8,0-.6-.2-1.4-.2-2,0-1,.1-2.2,1-3.2.5-.6,1.2-.8,1.7-.8.6,0,1.1,0,1.6.1.5.1,1,.3,1.4.4h0c.5.2.9.3,1.3.4.9.2,1.2.1,1.4,0,0,0,.4-.3.4-1.9,0-5.3-4.3-9.6-9.6-9.6S1.4,5.7,1.4,11s4.3,9.6,9.6,9.6"/>
</svg>