<?xml version="1.0" encoding="UTF-8"?>
<svg id="Layer_1" xmlns="http://www.w3.org/2000/svg" version="1.1" viewBox="0 0 22 22">
  <!-- Generator: Adobe Illustrator 30.0.0, SVG Export Plug-In . SVG Version: 2.1.1 Build 123)  -->
  <path d="M0,2.6C0,1.2,1.2,0,2.8,0h12.4c1.5,0,2.8,1.2,2.8,2.6h.7c1.9,0,3.4,1.4,3.4,3.2v3.9c0,1.8-1.5,3.2-3.4,3.2h-6.9c-.4,0-.7.3-.7.6v.8c.8.3,1.4,1,1.4,1.8v3.9c0,1.1-.9,1.9-2.1,1.9h-1.4c-1.1,0-2.1-.9-2.1-1.9v-3.9c0-.8.6-1.6,1.4-1.8v-.8c0-1.8,1.5-3.2,3.4-3.2h6.9c.4,0,.7-.3.7-.6v-3.9c0-.4-.3-.6-.7-.6h-.7c0,1.4-1.2,2.6-2.8,2.6H2.8c-1.5,0-2.8-1.2-2.8-2.6v-2.6Z" fill="#FFF"/>
</svg>