<?xml version="1.0" encoding="UTF-8"?>
<svg id="Layer_1" xmlns="http://www.w3.org/2000/svg" version="1.1" viewBox="0 0 22 22">
  <!-- Generator: Adobe Illustrator 30.0.0, SVG Export Plug-In . SVG Version: 2.1.1 Build 123)  -->
  <defs>
    <style>
      .st0 {
        fill-rule: evenodd;
      }
    </style>
  </defs>
  <path d="M15.1,8.2c0,2.3-1.8,4.1-4.1,4.1s-4.1-1.8-4.1-4.1,1.8-4.1,4.1-4.1,4.1,1.8,4.1,4.1" fill="#FFF"/>
  <path class="st0" d="M0,11C0,4.9,4.9,0,11,0s11,4.9,11,11-4.9,11-11,11S0,17.1,0,11M11,1.4c-5.3,0-9.6,4.3-9.6,9.6,0,2.2.7,4.3,2.1,6,1-1.6,3.1-3.3,7.5-3.3s6.5,1.7,7.5,3.3c3.3-4.2,2.6-10.2-1.5-13.5-1.7-1.4-3.8-2.1-6-2.1" fill="#FFF"/>
</svg>